#N canvas 76 67 1079 715 10;
#X obj 20 13 inlet, f 8;
#X obj 136 683 outlet~;
#X obj 20 124 mtof;
#X obj 20 82 unpack 0 0;
#X obj 309 254 line~;
#X msg 309 225 \$1 100;
#X obj 136 611 *~, f 10;
#X obj 226 27 receive tilts;
#X obj 25 549 osc~;
#X obj 223 459 osc~;
#X obj 223 481 *~;
#X obj 25 516 +~;
#X obj 80 373 line~;
#X obj 80 408 *~, f 12;
#X obj 26 235 t b f f f, f 33;
#X obj 206 370 line~;
#X obj 223 431 *~, f 18;
#X msg 503 301 \$1 200;
#X obj 503 278 + 1.605;
#X msg 474 445 \$1 200;
#X obj 474 422 + 1.705;
#X obj 295 62 unpack 0 0;
#X obj 103 45 t l b 0;
#X obj 309 196 clip 0 1;
#X obj 474 399 * -0.5;
#X obj 141 645 *~ 0.6, f 10;
#X obj 503 255 * -0.5;
#X connect 0 0 22 0;
#X connect 2 0 14 0;
#X connect 3 0 2 0;
#X connect 3 1 23 0;
#X connect 4 0 6 1;
#X connect 5 0 4 0;
#X connect 6 0 25 0;
#X connect 7 0 21 0;
#X connect 8 0 6 0;
#X connect 9 0 10 0;
#X connect 10 0 11 0;
#X connect 11 0 8 0;
#X connect 12 0 13 0;
#X connect 13 0 10 1;
#X connect 14 1 11 1;
#X connect 14 2 13 1;
#X connect 14 3 16 1;
#X connect 15 0 16 0;
#X connect 16 0 9 0;
#X connect 17 0 15 0;
#X connect 18 0 17 0;
#X connect 19 0 12 0;
#X connect 20 0 19 0;
#X connect 21 0 24 0;
#X connect 21 1 26 0;
#X connect 22 0 3 0;
#X connect 23 0 5 0;
#X connect 24 0 20 0;
#X connect 25 0 1 0;
#X connect 26 0 18 0;
