#N canvas 0 22 542 497 10;
#X obj 20 13 inlet, f 8;
#X obj 19 350 outlet~;
#X obj 20 94 mtof;
#X obj 20 52 unpack 0 0;
#X obj 239 156 / 127;
#X obj 239 214 line~;
#X msg 239 185 \$1 100;
#X obj 19 318 *~, f 10;
#X obj 19 275 osc~;
#X msg 20 145 \$1 25;
#X obj 20 167 line~;
#X obj 72 149 * 0.5;
#X obj 19 189 osc~;
#X obj 19 211 *~;
#X obj 19 241 +~;
#X connect 0 0 3 0;
#X connect 2 0 9 0;
#X connect 2 0 11 0;
#X connect 3 0 2 0;
#X connect 3 1 4 0;
#X connect 4 0 6 0;
#X connect 5 0 7 1;
#X connect 6 0 5 0;
#X connect 7 0 1 0;
#X connect 8 0 7 0;
#X connect 9 0 10 0;
#X connect 10 0 12 0;
#X connect 10 0 14 1;
#X connect 11 0 13 1;
#X connect 12 0 13 0;
#X connect 13 0 14 0;
#X connect 14 0 8 0;
