#N canvas 722 170 396 501 10;
#X obj 33 466 dac~;
#X obj 162 14 receive fromSystem;
#X obj 162 39 list trim;
#X text 209 464 By Kristian Nymoen \, 2015;
#N canvas 424 23 674 425 reverb-stuff 0;
#X obj 131 90 hsl 128 15 0 1 0 1 empty empty 'roomsize' 20 8 0 10 -262144
-260097 -1 11697 0;
#X obj 148 136 hsl 128 15 0 2 0 1 empty empty damp 20 8 0 10 -262144
-260097 -1 11798 0;
#X floatatom 134 109 5 0 0 0 - - -, f 5;
#X floatatom 151 155 5 0 0 0 - - -, f 5;
#X obj 173 232 hsl 128 15 0 1 0 1 empty empty wet 20 8 0 10 -262144
-260097 -1 12700 0;
#X obj 163 179 hsl 128 15 0 1 0 1 empty empty dry 20 8 0 10 -262144
-260097 -1 10998 0;
#X floatatom 175 251 5 0 0 0 - - -, f 5;
#X floatatom 166 198 5 0 0 0 - - -, f 5;
#N canvas 335 277 634 321 vfreeverb~ 0;
#N canvas 261 41 778 367 combfilters-left1 0;
#X obj 46 244 +~;
#X obj 61 219 *~ 0.3;
#X obj 61 194 lop~ 1000;
#X obj 231 244 +~;
#X obj 246 219 *~ 0.3;
#X obj 246 194 lop~ 1000;
#X obj 429 218 *~ 0.3;
#X obj 429 193 lop~ 1000;
#X obj 414 241 +~;
#X obj 610 218 *~ 0.3;
#X obj 610 193 lop~ 1000;
#X obj 595 241 +~;
#X obj 61 141 delread~ \$0-comb1left;
#X obj 246 142 delread~ \$0-comb2left;
#X obj 429 141 delread~ \$0-comb3left;
#X obj 610 141 delread~ \$0-comb4left;
#X obj 46 268 delwrite~ \$0-comb1left 100;
#X obj 231 268 delwrite~ \$0-comb2left 100;
#X obj 414 267 delwrite~ \$0-comb3left 100;
#X obj 595 267 delwrite~ \$0-comb4left 100;
#X obj 61 97 r \$0-comb1left;
#X obj 246 97 r \$0-comb2left;
#X obj 429 95 r \$0-comb3left;
#X obj 610 96 r \$0-comb4left;
#X obj 112 170 r \$0-frequency;
#X obj 297 170 r \$0-frequency;
#X obj 480 167 r \$0-frequency;
#X obj 661 167 r \$0-frequency;
#X obj 46 28 inlet~;
#X obj 338 326 outlet~;
#X floatatom 70 119 5 0 0 0 - - -, f 5;
#X floatatom 255 121 5 0 0 0 - - -, f 5;
#X floatatom 439 119 5 0 0 0 - - -, f 5;
#X floatatom 622 121 5 0 0 0 - - -, f 5;
#X obj 279 58 clip 0 0.99;
#X obj 279 29 r \$0-room;
#X connect 0 0 16 0;
#X connect 1 0 0 1;
#X connect 2 0 1 0;
#X connect 3 0 17 0;
#X connect 4 0 3 1;
#X connect 5 0 4 0;
#X connect 6 0 8 1;
#X connect 7 0 6 0;
#X connect 8 0 18 0;
#X connect 9 0 11 1;
#X connect 10 0 9 0;
#X connect 11 0 19 0;
#X connect 12 0 2 0;
#X connect 12 0 29 0;
#X connect 13 0 5 0;
#X connect 13 0 29 0;
#X connect 14 0 7 0;
#X connect 14 0 29 0;
#X connect 15 0 10 0;
#X connect 15 0 29 0;
#X connect 20 0 12 0;
#X connect 20 0 30 0;
#X connect 21 0 13 0;
#X connect 21 0 31 0;
#X connect 22 0 14 0;
#X connect 22 0 32 0;
#X connect 23 0 15 0;
#X connect 23 0 33 0;
#X connect 24 0 2 1;
#X connect 25 0 5 1;
#X connect 26 0 7 1;
#X connect 27 0 10 1;
#X connect 28 0 0 0;
#X connect 28 0 3 0;
#X connect 28 0 8 0;
#X connect 28 0 11 0;
#X connect 34 0 1 1;
#X connect 34 0 4 1;
#X connect 34 0 6 1;
#X connect 34 0 9 1;
#X connect 35 0 34 0;
#X restore 15 100 pd combfilters-left1;
#N canvas 27 56 358 650 diffusor-left 0;
#X obj 51 107 *~ 0.5;
#X obj 36 132 +~;
#X obj 66 132 -~;
#X obj 36 26 inlet~;
#X obj 81 238 *~ 0.5;
#X obj 66 263 +~;
#X obj 96 263 -~;
#X obj 111 368 *~ 0.5;
#X obj 96 393 +~;
#X obj 126 393 -~;
#X obj 141 498 *~ 0.5;
#X obj 126 523 +~;
#X obj 156 523 -~;
#X obj 156 605 outlet~;
#X text 95 28 freeverb's diffusor;
#X obj 156 576 hip~ 5;
#X floatatom 214 70 5 0 0 0 - - -, f 5;
#X floatatom 246 203 5 0 0 0 - - -, f 5;
#X floatatom 280 334 5 0 0 0 - - -, f 5;
#X floatatom 304 464 5 0 0 0 - - -, f 5;
#X obj 51 53 r \$0-allpass1left;
#X obj 51 80 delread~ \$0-allpass1left;
#X obj 36 158 delwrite~ \$0-allpass1left 40;
#X obj 81 186 r \$0-allpass2left;
#X obj 81 211 delread~ \$0-allpass2left;
#X obj 66 290 delwrite~ \$0-allpass2left 40;
#X obj 111 317 r \$0-allpass3left;
#X obj 111 341 delread~ \$0-allpass3left;
#X obj 96 420 delwrite~ \$0-allpass3left 40;
#X obj 141 447 r \$0-allpass4left;
#X obj 141 471 delread~ \$0-allpass4left;
#X obj 126 550 delwrite~ \$0-allpass4left 40;
#X connect 0 0 1 1;
#X connect 1 0 22 0;
#X connect 2 0 5 0;
#X connect 2 0 6 1;
#X connect 3 0 1 0;
#X connect 3 0 2 1;
#X connect 4 0 5 1;
#X connect 5 0 25 0;
#X connect 6 0 8 0;
#X connect 6 0 9 1;
#X connect 7 0 8 1;
#X connect 8 0 28 0;
#X connect 9 0 11 0;
#X connect 9 0 12 1;
#X connect 10 0 11 1;
#X connect 11 0 31 0;
#X connect 12 0 15 0;
#X connect 15 0 13 0;
#X connect 20 0 16 0;
#X connect 20 0 21 0;
#X connect 21 0 0 0;
#X connect 21 0 2 0;
#X connect 23 0 17 0;
#X connect 23 0 24 0;
#X connect 24 0 4 0;
#X connect 24 0 6 0;
#X connect 26 0 18 0;
#X connect 26 0 27 0;
#X connect 27 0 7 0;
#X connect 27 0 9 0;
#X connect 29 0 19 0;
#X connect 29 0 30 0;
#X connect 30 0 10 0;
#X connect 30 0 12 0;
#X restore 15 168 pd diffusor-left;
#N canvas 312 366 778 367 combfilters-left2 0;
#X obj 46 244 +~;
#X obj 61 219 *~ 0.3;
#X obj 61 194 lop~ 1000;
#X obj 231 244 +~;
#X obj 246 219 *~ 0.3;
#X obj 246 194 lop~ 1000;
#X obj 429 218 *~ 0.3;
#X obj 429 193 lop~ 1000;
#X obj 414 241 +~;
#X obj 610 218 *~ 0.3;
#X obj 610 193 lop~ 1000;
#X obj 595 241 +~;
#X obj 112 170 r \$0-frequency;
#X obj 297 170 r \$0-frequency;
#X obj 480 167 r \$0-frequency;
#X obj 661 167 r \$0-frequency;
#X obj 46 28 inlet~;
#X obj 338 326 outlet~;
#X obj 61 90 r \$0-comb5left;
#X obj 61 141 delread~ \$0-comb5left;
#X obj 46 268 delwrite~ \$0-comb5left 100;
#X obj 246 90 r \$0-comb6left;
#X obj 246 142 delread~ \$0-comb6left;
#X obj 231 268 delwrite~ \$0-comb6left 100;
#X obj 429 88 r \$0-comb7left;
#X obj 429 141 delread~ \$0-comb7left;
#X obj 414 267 delwrite~ \$0-comb7left 100;
#X obj 610 89 r \$0-comb8left;
#X obj 610 141 delread~ \$0-comb8left;
#X obj 595 267 delwrite~ \$0-comb8left 100;
#X floatatom 70 116 5 0 0 0 - - -, f 5;
#X floatatom 261 118 5 0 0 0 - - -, f 5;
#X floatatom 440 117 5 0 0 0 - - -, f 5;
#X floatatom 620 116 5 0 0 0 - - -, f 5;
#X obj 279 58 clip 0 0.99;
#X obj 279 28 r \$0-room;
#X connect 0 0 20 0;
#X connect 1 0 0 1;
#X connect 2 0 1 0;
#X connect 3 0 23 0;
#X connect 4 0 3 1;
#X connect 5 0 4 0;
#X connect 6 0 8 1;
#X connect 7 0 6 0;
#X connect 8 0 26 0;
#X connect 9 0 11 1;
#X connect 10 0 9 0;
#X connect 11 0 29 0;
#X connect 12 0 2 1;
#X connect 13 0 5 1;
#X connect 14 0 7 1;
#X connect 15 0 10 1;
#X connect 16 0 0 0;
#X connect 16 0 3 0;
#X connect 16 0 8 0;
#X connect 16 0 11 0;
#X connect 18 0 19 0;
#X connect 18 0 30 0;
#X connect 19 0 2 0;
#X connect 19 0 17 0;
#X connect 21 0 22 0;
#X connect 21 0 31 0;
#X connect 22 0 5 0;
#X connect 22 0 17 0;
#X connect 24 0 25 0;
#X connect 24 0 32 0;
#X connect 25 0 7 0;
#X connect 25 0 17 0;
#X connect 27 0 28 0;
#X connect 27 0 33 0;
#X connect 28 0 10 0;
#X connect 28 0 17 0;
#X connect 34 0 1 1;
#X connect 34 0 4 1;
#X connect 34 0 6 1;
#X connect 34 0 9 1;
#X connect 35 0 34 0;
#X restore 36 134 pd combfilters-left2;
#N canvas 261 41 778 367 combfilters-right1 0;
#X obj 46 244 +~;
#X obj 61 219 *~ 0.3;
#X obj 61 194 lop~ 1000;
#X obj 231 244 +~;
#X obj 246 219 *~ 0.3;
#X obj 246 194 lop~ 1000;
#X obj 429 218 *~ 0.3;
#X obj 429 193 lop~ 1000;
#X obj 414 241 +~;
#X obj 610 218 *~ 0.3;
#X obj 610 193 lop~ 1000;
#X obj 595 241 +~;
#X obj 112 170 r \$0-frequency;
#X obj 297 170 r \$0-frequency;
#X obj 480 167 r \$0-frequency;
#X obj 661 167 r \$0-frequency;
#X obj 46 28 inlet~;
#X obj 338 326 outlet~;
#X floatatom 70 119 5 0 0 0 - - -, f 5;
#X floatatom 255 121 5 0 0 0 - - -, f 5;
#X floatatom 439 119 5 0 0 0 - - -, f 5;
#X floatatom 622 121 5 0 0 0 - - -, f 5;
#X obj 61 141 delread~ \$0-comb1right;
#X obj 246 142 delread~ \$0-comb2right;
#X obj 429 141 delread~ \$0-comb3right;
#X obj 610 141 delread~ \$0-comb4right;
#X obj 61 97 r \$0-comb1right;
#X obj 246 97 r \$0-comb2right;
#X obj 429 95 r \$0-comb3right;
#X obj 610 97 r \$0-comb4right;
#X obj 46 268 delwrite~ \$0-comb1right 100;
#X obj 231 268 delwrite~ \$0-comb2right 100;
#X obj 414 267 delwrite~ \$0-comb3right 100;
#X obj 595 267 delwrite~ \$0-comb4right 100;
#X obj 279 58 clip 0 0.99;
#X obj 279 28 r \$0-room;
#X connect 0 0 30 0;
#X connect 1 0 0 1;
#X connect 2 0 1 0;
#X connect 3 0 31 0;
#X connect 4 0 3 1;
#X connect 5 0 4 0;
#X connect 6 0 8 1;
#X connect 7 0 6 0;
#X connect 8 0 32 0;
#X connect 9 0 11 1;
#X connect 10 0 9 0;
#X connect 11 0 33 0;
#X connect 12 0 2 1;
#X connect 13 0 5 1;
#X connect 14 0 7 1;
#X connect 15 0 10 1;
#X connect 16 0 0 0;
#X connect 16 0 3 0;
#X connect 16 0 8 0;
#X connect 16 0 11 0;
#X connect 22 0 2 0;
#X connect 22 0 17 0;
#X connect 23 0 5 0;
#X connect 23 0 17 0;
#X connect 24 0 7 0;
#X connect 24 0 17 0;
#X connect 25 0 10 0;
#X connect 25 0 17 0;
#X connect 26 0 18 0;
#X connect 26 0 22 0;
#X connect 27 0 19 0;
#X connect 27 0 23 0;
#X connect 28 0 20 0;
#X connect 28 0 24 0;
#X connect 29 0 21 0;
#X connect 29 0 25 0;
#X connect 34 0 1 1;
#X connect 34 0 4 1;
#X connect 34 0 6 1;
#X connect 34 0 9 1;
#X connect 35 0 34 0;
#X restore 208 99 pd combfilters-right1;
#N canvas 312 366 778 367 combfilters-right2 0;
#X obj 46 244 +~;
#X obj 61 219 *~ 0.3;
#X obj 61 194 lop~ 1000;
#X obj 231 244 +~;
#X obj 246 219 *~ 0.3;
#X obj 246 194 lop~ 1000;
#X obj 429 218 *~ 0.3;
#X obj 429 193 lop~ 1000;
#X obj 414 241 +~;
#X obj 610 218 *~ 0.3;
#X obj 610 193 lop~ 1000;
#X obj 595 241 +~;
#X obj 112 170 r \$0-frequency;
#X obj 297 170 r \$0-frequency;
#X obj 480 167 r \$0-frequency;
#X obj 661 167 r \$0-frequency;
#X obj 46 28 inlet~;
#X obj 338 326 outlet~;
#X floatatom 70 116 5 0 0 0 - - -, f 5;
#X floatatom 261 118 5 0 0 0 - - -, f 5;
#X floatatom 440 117 5 0 0 0 - - -, f 5;
#X floatatom 620 116 5 0 0 0 - - -, f 5;
#X obj 279 58 clip 0 0.99;
#X obj 61 90 r \$0-comb5right;
#X obj 246 90 r \$0-comb6right;
#X obj 429 88 r \$0-comb7right;
#X obj 610 89 r \$0-comb8right;
#X obj 61 141 delread~ \$0-comb5right;
#X obj 246 142 delread~ \$0-comb6right;
#X obj 429 141 delread~ \$0-comb7right;
#X obj 610 141 delread~ \$0-comb8right;
#X obj 46 268 delwrite~ \$0-comb5right 100;
#X obj 231 268 delwrite~ \$0-comb6right 100;
#X obj 414 267 delwrite~ \$0-comb7right 100;
#X obj 595 267 delwrite~ \$0-comb8right 100;
#X obj 279 28 r \$0-room;
#X connect 0 0 31 0;
#X connect 1 0 0 1;
#X connect 2 0 1 0;
#X connect 3 0 32 0;
#X connect 4 0 3 1;
#X connect 5 0 4 0;
#X connect 6 0 8 1;
#X connect 7 0 6 0;
#X connect 8 0 33 0;
#X connect 9 0 11 1;
#X connect 10 0 9 0;
#X connect 11 0 34 0;
#X connect 12 0 2 1;
#X connect 13 0 5 1;
#X connect 14 0 7 1;
#X connect 15 0 10 1;
#X connect 16 0 0 0;
#X connect 16 0 3 0;
#X connect 16 0 8 0;
#X connect 16 0 11 0;
#X connect 22 0 1 1;
#X connect 22 0 4 1;
#X connect 22 0 6 1;
#X connect 22 0 9 1;
#X connect 23 0 18 0;
#X connect 23 0 27 0;
#X connect 24 0 19 0;
#X connect 24 0 28 0;
#X connect 25 0 20 0;
#X connect 25 0 29 0;
#X connect 26 0 21 0;
#X connect 26 0 30 0;
#X connect 27 0 2 0;
#X connect 27 0 17 0;
#X connect 28 0 5 0;
#X connect 28 0 17 0;
#X connect 29 0 7 0;
#X connect 29 0 17 0;
#X connect 30 0 10 0;
#X connect 30 0 17 0;
#X connect 35 0 22 0;
#X restore 225 133 pd combfilters-right2;
#N canvas 27 56 358 650 diffusor-right 0;
#X obj 51 107 *~ 0.5;
#X obj 36 132 +~;
#X obj 66 132 -~;
#X obj 36 26 inlet~;
#X obj 81 238 *~ 0.5;
#X obj 66 263 +~;
#X obj 96 263 -~;
#X obj 111 368 *~ 0.5;
#X obj 96 393 +~;
#X obj 126 393 -~;
#X obj 141 498 *~ 0.5;
#X obj 126 523 +~;
#X obj 156 523 -~;
#X obj 156 605 outlet~;
#X text 95 28 freeverb's diffusor;
#X obj 156 576 hip~ 5;
#X floatatom 214 70 5 0 0 0 - - -, f 5;
#X floatatom 244 203 5 0 0 0 - - -, f 5;
#X floatatom 280 334 5 0 0 0 - - -, f 5;
#X floatatom 304 464 5 0 0 0 - - -, f 5;
#X obj 51 53 r \$0-allpass1right;
#X obj 51 80 delread~ \$0-allpass1right;
#X obj 36 158 delwrite~ \$0-allpass1right 40;
#X obj 81 186 r \$0-allpass2right;
#X obj 81 211 delread~ \$0-allpass2right;
#X obj 66 290 delwrite~ \$0-allpass2right 40;
#X obj 111 317 r \$0-allpass3right;
#X obj 111 341 delread~ \$0-allpass3right;
#X obj 96 420 delwrite~ \$0-allpass3right 40;
#X obj 141 447 r \$0-allpass4right;
#X obj 141 471 delread~ \$0-allpass4right;
#X obj 126 550 delwrite~ \$0-allpass4right 40;
#X connect 0 0 1 1;
#X connect 1 0 22 0;
#X connect 2 0 5 0;
#X connect 2 0 6 1;
#X connect 3 0 1 0;
#X connect 3 0 2 1;
#X connect 4 0 5 1;
#X connect 5 0 25 0;
#X connect 6 0 8 0;
#X connect 6 0 9 1;
#X connect 7 0 8 1;
#X connect 8 0 28 0;
#X connect 9 0 11 0;
#X connect 9 0 12 1;
#X connect 10 0 11 1;
#X connect 11 0 31 0;
#X connect 12 0 15 0;
#X connect 15 0 13 0;
#X connect 20 0 16 0;
#X connect 20 0 21 0;
#X connect 21 0 0 0;
#X connect 21 0 2 0;
#X connect 23 0 17 0;
#X connect 23 0 24 0;
#X connect 24 0 4 0;
#X connect 24 0 6 0;
#X connect 26 0 18 0;
#X connect 26 0 27 0;
#X connect 27 0 7 0;
#X connect 27 0 9 0;
#X connect 29 0 19 0;
#X connect 29 0 30 0;
#X connect 30 0 10 0;
#X connect 30 0 12 0;
#X restore 208 169 pd diffusor-right;
#X obj 208 61 *~ 0.015;
#X obj 15 226 *~ 1;
#X obj 208 228 *~ 1;
#X obj 94 228 *~ 1;
#X obj 169 228 *~ 1;
#X obj 115 202 r \$0-dry;
#X obj 229 203 r \$0-wet;
#X obj 36 201 r \$0-wet;
#X obj 94 14 inlet~;
#X obj 208 14 inlet~;
#X obj 15 268 outlet~;
#X obj 169 269 outlet~;
#X obj 312 14 inlet;
#X obj 374 14 inlet;
#X obj 462 14 inlet;
#X obj 544 16 inlet;
#N canvas 0 22 207 207 room 0;
#X obj 32 35 inlet;
#X obj 32 63 * 0.28;
#X obj 32 94 + 0.7;
#X obj 32 160 outlet;
#X text 80 65 scaleroom;
#X text 76 94 offsetroom;
#X obj 47 126 s \$0-room;
#X connect 0 0 1 0;
#X connect 1 0 2 0;
#X connect 2 0 3 0;
#X connect 2 0 6 0;
#X restore 312 45 pd room;
#N canvas 684 169 244 376 frequency 0;
#X obj 60 222 samplerate~;
#X obj 33 8 inlet;
#X obj 33 194 t f b;
#X obj 33 249 *;
#X obj 53 303 s \$0-frequency;
#X obj 33 327 outlet;
#X obj 33 64 * 0.4;
#X text 76 66 scaledamp;
#X obj 33 38 clip 0 2;
#X obj 33 90 t b f;
#X obj 33 141 -;
#X msg 33 116 1;
#X obj 33 168 abs;
#X obj 33 275 * 0.5;
#X text 153 303 for [lop~];
#X connect 0 0 3 1;
#X connect 1 0 8 0;
#X connect 2 0 3 0;
#X connect 2 1 0 0;
#X connect 3 0 13 0;
#X connect 6 0 9 0;
#X connect 8 0 6 0;
#X connect 9 0 11 0;
#X connect 9 1 10 1;
#X connect 10 0 12 0;
#X connect 11 0 10 0;
#X connect 12 0 2 0;
#X connect 13 0 5 0;
#X connect 13 0 4 0;
#X restore 374 45 pd frequency;
#N canvas 0 22 170 187 scalewet 0;
#X obj 22 42 inlet;
#X obj 22 143 outlet;
#X obj 22 73 * 3;
#X text 49 74 scalewet;
#X obj 40 112 s \$0-wet;
#X connect 0 0 2 0;
#X connect 2 0 1 0;
#X connect 2 0 4 0;
#X restore 544 45 pd scalewet;
#N canvas 0 22 220 198 scaledry 0;
#X obj 32 74 * 2;
#X obj 32 40 inlet;
#X obj 32 141 outlet;
#X text 58 75 scaledry;
#X obj 41 105 s \$0-dry;
#X connect 0 0 2 0;
#X connect 0 0 4 0;
#X connect 1 0 0 0;
#X restore 462 45 pd scaledry;
#X floatatom 312 70 5 0 0 0 - - -, f 5;
#X floatatom 374 70 10 0 0 0 - - -, f 10;
#X floatatom 462 69 5 0 0 0 - - -, f 5;
#X floatatom 544 69 5 0 0 0 - - -, f 5;
#N canvas 405 27 635 684 tuning 0;
#X msg 332 81 1139 \, 1211 \, 1300 \, 1379 \, 1445 \, 1514 \, 1580
\, 1640;
#X text 72 57 combfilter tunings left;
#X text 377 56 combfilter tunings right;
#X text 71 360 allpass tunings left;
#X text 383 355 allpass tunings right;
#N canvas 243 170 195 233 sampstoms 0;
#X obj 27 21 inlet;
#X obj 54 86 samplerate~;
#X obj 27 111 /;
#X obj 27 57 t f b;
#X obj 27 136 * 1000;
#X obj 27 162 outlet;
#X connect 0 0 3 0;
#X connect 1 0 2 1;
#X connect 2 0 4 0;
#X connect 3 0 2 0;
#X connect 3 1 1 0;
#X connect 4 0 5 0;
#X restore 30 107 pd sampstoms;
#X msg 30 82 1116 \, 1188 \, 1277 \, 1356 \, 1422 \, 1491 \, 1557 \,
1617;
#X obj 57 188 +;
#X msg 57 159 1;
#X obj 30 135 t f b;
#X obj 87 188 f;
#X obj 30 56 t b b;
#X msg 87 159 0;
#X obj 57 212 pack f \$0;
#X msg 57 238 \$2-comb\$1left;
#X obj 30 282 s;
#X obj 57 265 symbol;
#N canvas 0 22 195 233 sampstoms 0;
#X obj 27 21 inlet;
#X obj 54 86 samplerate~;
#X obj 27 111 /;
#X obj 27 57 t f b;
#X obj 27 136 * 1000;
#X obj 27 162 outlet;
#X connect 0 0 3 0;
#X connect 1 0 2 1;
#X connect 2 0 4 0;
#X connect 3 0 2 0;
#X connect 3 1 1 0;
#X connect 4 0 5 0;
#X restore 332 107 pd sampstoms;
#X obj 359 188 +;
#X msg 359 159 1;
#X obj 332 135 t f b;
#X obj 389 188 f;
#X msg 389 159 0;
#X obj 359 212 pack f \$0;
#X obj 332 282 s;
#X obj 359 265 symbol;
#X obj 332 56 t b b;
#X msg 359 238 \$2-comb\$1right;
#X obj 30 360 t b b;
#N canvas 0 22 195 233 sampstoms 0;
#X obj 27 21 inlet;
#X obj 54 86 samplerate~;
#X obj 27 111 /;
#X obj 27 57 t f b;
#X obj 27 136 * 1000;
#X obj 27 162 outlet;
#X connect 0 0 3 0;
#X connect 1 0 2 1;
#X connect 2 0 4 0;
#X connect 3 0 2 0;
#X connect 3 1 1 0;
#X connect 4 0 5 0;
#X restore 30 411 pd sampstoms;
#X obj 57 492 +;
#X msg 57 463 1;
#X obj 30 439 t f b;
#X obj 87 492 f;
#X msg 87 463 0;
#X obj 57 516 pack f \$0;
#X obj 30 586 s;
#X obj 57 569 symbol;
#X obj 334 356 t b b;
#N canvas 0 22 195 233 sampstoms 0;
#X obj 27 21 inlet;
#X obj 54 86 samplerate~;
#X obj 27 111 /;
#X obj 27 57 t f b;
#X obj 27 136 * 1000;
#X obj 27 162 outlet;
#X connect 0 0 3 0;
#X connect 1 0 2 1;
#X connect 2 0 4 0;
#X connect 3 0 2 0;
#X connect 3 1 1 0;
#X connect 4 0 5 0;
#X restore 334 407 pd sampstoms;
#X obj 361 488 +;
#X msg 361 459 1;
#X obj 334 435 t f b;
#X obj 391 488 f;
#X msg 391 459 0;
#X obj 361 512 pack f \$0;
#X obj 334 582 s;
#X obj 361 565 symbol;
#X obj 30 22 loadbang;
#X obj 332 27 loadbang;
#X obj 30 334 loadbang;
#X obj 334 331 loadbang;
#X obj 268 41 bng 15 250 50 0 empty empty empty 17 7 0 10 -262144 -1
-1;
#X msg 30 386 225 \, 556 \, 441 \, 341;
#X msg 334 380 248 \, 579 \, 464 \, 364;
#X msg 57 542 \$2-allpass\$1left;
#X msg 361 539 \$2-allpass\$1right;
#X text 27 624 Original Freeverb delay line lengths are converted to
milliseconds \, based on samplerate.;
#X connect 0 0 17 0;
#X connect 5 0 9 0;
#X connect 6 0 5 0;
#X connect 7 0 10 0;
#X connect 7 0 13 0;
#X connect 8 0 7 0;
#X connect 9 0 15 0;
#X connect 9 1 8 0;
#X connect 10 0 7 1;
#X connect 11 0 6 0;
#X connect 11 1 12 0;
#X connect 12 0 10 0;
#X connect 13 0 14 0;
#X connect 14 0 16 0;
#X connect 16 0 15 1;
#X connect 17 0 20 0;
#X connect 18 0 21 0;
#X connect 18 0 23 0;
#X connect 19 0 18 0;
#X connect 20 0 24 0;
#X connect 20 1 19 0;
#X connect 21 0 18 1;
#X connect 22 0 21 0;
#X connect 23 0 27 0;
#X connect 25 0 24 1;
#X connect 26 0 0 0;
#X connect 26 1 22 0;
#X connect 27 0 25 0;
#X connect 28 0 53 0;
#X connect 28 1 34 0;
#X connect 29 0 32 0;
#X connect 30 0 33 0;
#X connect 30 0 35 0;
#X connect 31 0 30 0;
#X connect 32 0 36 0;
#X connect 32 1 31 0;
#X connect 33 0 30 1;
#X connect 34 0 33 0;
#X connect 35 0 55 0;
#X connect 37 0 36 1;
#X connect 38 0 54 0;
#X connect 38 1 44 0;
#X connect 39 0 42 0;
#X connect 40 0 43 0;
#X connect 40 0 45 0;
#X connect 41 0 40 0;
#X connect 42 0 46 0;
#X connect 42 1 41 0;
#X connect 43 0 40 1;
#X connect 44 0 43 0;
#X connect 45 0 56 0;
#X connect 47 0 46 1;
#X connect 48 0 11 0;
#X connect 49 0 26 0;
#X connect 50 0 28 0;
#X connect 51 0 38 0;
#X connect 52 0 11 0;
#X connect 52 0 28 0;
#X connect 52 0 26 0;
#X connect 52 0 38 0;
#X connect 53 0 29 0;
#X connect 54 0 39 0;
#X connect 55 0 37 0;
#X connect 56 0 47 0;
#X restore 410 141 pd tuning;
#X connect 0 0 1 0;
#X connect 1 0 7 0;
#X connect 2 0 1 0;
#X connect 3 0 5 0;
#X connect 4 0 5 0;
#X connect 5 0 8 0;
#X connect 6 0 3 0;
#X connect 6 0 0 0;
#X connect 6 0 4 0;
#X connect 6 0 2 0;
#X connect 7 0 16 0;
#X connect 8 0 17 0;
#X connect 9 0 16 0;
#X connect 10 0 17 0;
#X connect 11 0 10 1;
#X connect 11 0 9 1;
#X connect 12 0 8 1;
#X connect 13 0 7 1;
#X connect 14 0 6 0;
#X connect 14 0 9 0;
#X connect 15 0 6 0;
#X connect 15 0 10 0;
#X connect 18 0 22 0;
#X connect 19 0 23 0;
#X connect 20 0 25 0;
#X connect 21 0 24 0;
#X connect 22 0 26 0;
#X connect 23 0 27 0;
#X connect 24 0 29 0;
#X connect 25 0 28 0;
#X restore 68 320 pd vfreeverb~;
#X msg 270 103 1.858;
#X msg 294 148 0.866;
#X obj 391 8 loadbang;
#X msg 248 59 0.921;
#X obj 68 164 inlet~;
#X obj 68 355 outlet~;
#X msg 319 196 1;
#X connect 0 0 2 0;
#X connect 0 0 8 2;
#X connect 1 0 3 0;
#X connect 1 0 8 3;
#X connect 4 0 6 0;
#X connect 4 0 8 5;
#X connect 5 0 7 0;
#X connect 5 0 8 4;
#X connect 8 0 14 0;
#X connect 8 1 14 0;
#X connect 9 0 1 0;
#X connect 10 0 5 0;
#X connect 11 0 9 0;
#X connect 11 0 10 0;
#X connect 11 0 12 0;
#X connect 11 0 15 0;
#X connect 12 0 0 0;
#X connect 13 0 8 0;
#X connect 13 0 8 1;
#X connect 15 0 4 0;
#X restore 130 335 pd reverb-stuff;
#X obj 162 63 route /tilts /accel;
#N canvas 364 271 273 320 shaking-amount 0;
#X obj 22 19 inlet;
#X obj 22 280 outlet;
#X obj 22 54 expr sqrt($f1*$f1 + $f2*$f2 + $f3*$f3);
#X obj 22 208 spigot;
#X obj 22 147 t f f;
#X obj 76 221 sel 1;
#X text 75 17 3d accel vector in;
#N canvas 750 130 450 300 runningmean 0;
#X obj 36 83 +;
#X obj 36 47 t f f;
#X obj 36 109 * 0.5;
#X obj 110 83 +;
#X obj 110 47 t f f;
#X obj 110 109 * 0.5;
#X obj 170 83 +;
#X obj 170 47 t f f;
#X obj 170 109 * 0.5;
#X obj 244 83 +;
#X obj 244 47 t f f;
#X obj 244 109 * 0.5;
#X obj 301 83 +;
#X obj 301 47 t f f;
#X obj 301 109 * 0.5;
#X obj 375 83 +;
#X obj 375 47 t f f;
#X obj 375 109 * 0.5;
#X obj 35 14 inlet;
#X obj 375 149 outlet;
#X text 57 212 cascading running 2-order running means.. maybe there's
a better way to do this?;
#X connect 0 0 2 0;
#X connect 1 0 0 1;
#X connect 1 1 0 0;
#X connect 2 0 4 0;
#X connect 3 0 5 0;
#X connect 4 0 3 1;
#X connect 4 1 3 0;
#X connect 5 0 7 0;
#X connect 6 0 8 0;
#X connect 7 0 6 1;
#X connect 7 1 6 0;
#X connect 8 0 10 0;
#X connect 9 0 11 0;
#X connect 10 0 9 1;
#X connect 10 1 9 0;
#X connect 11 0 13 0;
#X connect 12 0 14 0;
#X connect 13 0 12 1;
#X connect 13 1 12 0;
#X connect 14 0 16 0;
#X connect 15 0 17 0;
#X connect 16 0 15 1;
#X connect 16 1 15 0;
#X connect 17 0 19 0;
#X connect 18 0 1 0;
#X restore 22 87 pd runningmean;
#X obj 22 236 / 7;
#X obj 22 172 - 2;
#X obj 76 179 > 2;
#X obj 22 121 clip 0 9;
#X connect 0 0 2 0;
#X connect 2 0 7 0;
#X connect 3 0 8 0;
#X connect 4 0 9 0;
#X connect 4 1 10 0;
#X connect 5 1 1 0;
#X connect 7 0 11 0;
#X connect 8 0 1 0;
#X connect 9 0 3 0;
#X connect 10 0 3 1;
#X connect 10 0 5 0;
#X connect 11 0 4 0;
#X restore 217 108 pd shaking-amount;
#X obj 130 305 *~, f 15;
#X obj 217 193 line~;
#X msg 217 168 \$1 300;
#N canvas 658 36 1280 661 sendtoGUI 0;
#X obj 418 575 send toGUI;
#X obj 182 278 loadbang;
#X obj 902 183 sel 1 0;
#X obj 902 157 receive delayToggle;
#X msg 937 209 list /delayToggle set 0;
#X msg 915 249 list /delayPanel image delaybtn0.png;
#X msg 895 287 list /delayPanel image delaybtn1.png;
#X obj 456 217 receive userVolume;
#X msg 456 269 list /userVolume set \$1;
#X obj 456 243 * 0.25;
#X obj 521 326 receive octave;
#X msg 524 357 list /OCTAVElabel \$1;
#X msg 192 334 list /Octaveslider 2;
#X obj 342 160 receive semi;
#X msg 345 191 list /SEMIlabel \$1;
#X obj 855 380 loadbang;
#N canvas 0 22 406 343 paint-white-keys 0;
#X obj 19 137 pack, f 9;
#X obj 19 67 t f f, f 9;
#X obj 70 91 + 1;
#X obj 19 91 * 0.124;
#X obj 70 115 * 0.124;
#X obj 19 115 + 0.005;
#X msg 19 181 list /pno1 framerect \$1 0.015 \$2 0.985 0 0 0 1;
#X obj 19 160 t l l;
#X msg 46 223 list /pno1 paintrect \$1 0.015 \$2 0.985 1 1 1 1;
#X msg 19 44 0 \, 1 \, 2 \, 3 \, 4 \, 5 \, 6 \, 7;
#X obj 19 265 outlet;
#X obj 19 17 inlet;
#X msg 87 264 list /pno1 framerect 0.005 0.015 0.995 0.985;
#X connect 0 0 7 0;
#X connect 1 0 3 0;
#X connect 1 1 2 0;
#X connect 2 0 4 0;
#X connect 3 0 5 0;
#X connect 4 0 0 1;
#X connect 5 0 0 0;
#X connect 6 0 10 0;
#X connect 7 0 6 0;
#X connect 7 1 8 0;
#X connect 8 0 10 0;
#X connect 9 0 1 0;
#X connect 11 0 9 0;
#X restore 984 468 pd paint-white-keys;
#X obj 855 408 t b b;
#N canvas 588 102 307 301 paint-black-keys 0;
#X obj 19 167 pack, f 9;
#X obj 19 67 t f f, f 9;
#X obj 70 91 + 1;
#X obj 19 265 outlet;
#X obj 19 17 inlet;
#X obj 70 140 + 0.03;
#X msg 19 44 0 \, 1 \, 3 \, 4 \, 5;
#X obj 19 90 * 0.126;
#X obj 70 115 * 0.126;
#X obj 19 115 + 0.09;
#X msg 19 191 list /pno1 paintrect \$1 0.012 \$2 0.5 0 0 0 1;
#X connect 0 0 10 0;
#X connect 1 0 7 0;
#X connect 1 1 2 0;
#X connect 2 0 8 0;
#X connect 4 0 6 0;
#X connect 5 0 0 1;
#X connect 6 0 1 0;
#X connect 7 0 9 0;
#X connect 8 0 5 0;
#X connect 9 0 0 0;
#X connect 10 0 3 0;
#X restore 855 467 pd paint-black-keys;
#X msg 153 407 list /lop 1;
#X msg 111 475 list /delayFB 0 0;
#X connect 1 0 12 0;
#X connect 1 0 19 0;
#X connect 1 0 20 0;
#X connect 2 0 6 0;
#X connect 2 1 5 0;
#X connect 2 1 4 0;
#X connect 3 0 2 0;
#X connect 4 0 0 0;
#X connect 5 0 0 0;
#X connect 6 0 0 0;
#X connect 7 0 9 0;
#X connect 8 0 0 0;
#X connect 9 0 8 0;
#X connect 10 0 11 0;
#X connect 11 0 0 0;
#X connect 12 0 0 0;
#X connect 13 0 14 0;
#X connect 14 0 0 0;
#X connect 15 0 17 0;
#X connect 16 0 0 0;
#X connect 17 0 18 0;
#X connect 17 1 16 0;
#X connect 18 0 0 0;
#X connect 19 0 0 0;
#X connect 20 0 0 0;
#X restore 280 439 pd sendtoGUI;
#X obj 217 142 * 1;
#N canvas 433 289 446 362 receivefromGUI 0;
#X obj 18 14 receive fromGUI;
#X obj 18 38 list trim;
#X obj 18 251 outlet, f 10;
#N canvas 60 186 1178 536 other 0;
#X obj 38 25 inlet;
#X obj 204 376 * 0.9;
#X obj 204 307 == 0;
#X obj 204 436 line~;
#X msg 204 413 \$1 2;
#X obj 252 314 loadbang;
#X msg 252 336 1;
#X obj 244 292 receive volume;
#X obj 204 465 throw~ volume, f 14;
#N canvas 0 22 704 285 PanicButton 0;
#X obj 44 62 inlet;
#X obj 44 115 sel 1 0, f 98;
#X msg 336 164 \; volume 1 \; feedbackToggle 1 \; toGUI list /PanicPanel
image panicbtn0.png \;;
#X msg 44 164 \; volume 0 \; feedbackToggle 0 \; toGUI list /PanicPanel
image panicbtn1.png \;, f 45;
#X text 140 19 When clear button is pressed \, reduce volume to 0;
#X connect 0 0 1 0;
#X connect 1 0 3 0;
#X connect 1 1 2 0;
#X restore 198 151 pd PanicButton;
#N canvas 796 376 450 300 Octave 0;
#X obj 92 66 inlet;
#X obj 92 252 s octave;
#X obj 92 97 - 2;
#X obj 150 154 loadbang;
#X msg 145 192 0;
#X connect 0 0 2 0;
#X connect 2 0 1 0;
#X connect 3 0 4 0;
#X connect 4 0 1 0;
#X restore 526 156 pd Octave;
#N canvas 144 429 450 300 Semi 0;
#X obj 92 66 inlet;
#X obj 150 154 loadbang;
#X msg 145 192 0;
#X obj 92 252 s semi;
#X connect 0 0 3 0;
#X connect 1 0 2 0;
#X connect 2 0 3 0;
#X restore 676 158 pd Semi;
#X obj 53 101 loadbang;
#X msg 53 123 0.25;
#X msg 33 176 \; userVolume \$1 \;;
#X obj 33 148 * 4;
#N canvas 176 315 450 300 filter 0;
#X obj 92 66 inlet;
#X obj 258 19 loadbang;
#X obj 94 128 mtof;
#X obj 92 103 * 136;
#X obj 92 181 clip 100 21000;
#X msg 197 68 1;
#X obj 92 215 s lop;
#X connect 0 0 3 0;
#X connect 1 0 5 0;
#X connect 2 0 4 0;
#X connect 3 0 2 0;
#X connect 4 0 6 0;
#X connect 5 0 3 0;
#X restore 825 164 pd filter;
#X obj 38 56 route /userVolume /PanicButton /delayFB /Octaveslider
/Semislider /lop, f 175;
#X obj 358 153 send delay, f 17;
#X connect 0 0 17 0;
#X connect 1 0 4 0;
#X connect 2 0 1 0;
#X connect 3 0 8 0;
#X connect 4 0 3 0;
#X connect 5 0 6 0;
#X connect 6 0 1 0;
#X connect 7 0 1 0;
#X connect 12 0 13 0;
#X connect 13 0 15 0;
#X connect 15 0 14 0;
#X connect 17 0 15 0;
#X connect 17 1 9 0;
#X connect 17 2 18 0;
#X connect 17 3 10 0;
#X connect 17 4 11 0;
#X connect 17 5 16 0;
#X restore 284 96 pd other;
#X obj 18 148 route touch;
#X obj 18 68 route /pno1LCD /pno2LCD;
#X obj 126 147 route touch;
#X obj 126 252 outlet, f 10;
#X connect 0 0 1 0;
#X connect 1 0 5 0;
#X connect 4 0 2 0;
#X connect 5 0 4 0;
#X connect 5 1 6 0;
#X connect 5 2 3 0;
#X connect 6 0 7 0;
#X restore 33 14 pd receivefromGUI;
#X obj 84 230 catch~ volume;
#N canvas 86 83 311 454 limiter 0;
#X obj 76 342 *~, f 5;
#X obj 103 150 env~;
#X obj 103 172 dbtorms;
#X obj 76 45 inlet~;
#X obj 76 365 outlet~;
#X msg 103 226 1 \$1;
#X obj 103 253 /;
#X obj 103 278 min 1;
#X obj 103 199 + 0.5;
#X obj 103 306 lop~ 5;
#X connect 0 0 4 0;
#X connect 1 0 2 0;
#X connect 2 0 8 0;
#X connect 3 0 1 0;
#X connect 3 0 0 0;
#X connect 5 0 6 0;
#X connect 6 0 7 0;
#X connect 7 0 9 0;
#X connect 8 0 5 0;
#X connect 9 0 0 1;
#X restore 33 430 pd limiter;
#N canvas 204 23 866 672 delay-stuff 0;
#X obj 98 37 inlet~;
#X obj 615 216 * 0.6;
#X obj 615 326 line~;
#X msg 615 301 \$1 10;
#X obj 688 216 loadbang;
#X text 675 305 feedback;
#X obj 265 124 *;
#X msg 688 244 0.7;
#X obj 615 276 clip 0 0.6;
#X obj 615 241 + 0.2;
#X obj 698 437 line~;
#X msg 698 412 \$1 10;
#X obj 698 383 receive feedbackToggle;
#X obj 667 360 loadbang;
#X msg 667 383 1;
#X obj 143 240 sqrt;
#X obj 143 360 line~;
#X text 137 436 delay level;
#X msg 113 101 \$1 100;
#X obj 113 125 line~;
#X msg 143 335 \$1 200;
#X obj 98 417 *~, f 8;
#X obj 438 370 lop~ 4000;
#X obj 365 470 outlet~;
#X obj 438 402 *~ 1;
#X obj 438 340 delread~ delay1 500;
#X obj 615 470 *~;
#X obj 438 621 delwrite~ delay1 1000;
#X obj 254 340 delread~ delay2 340;
#X obj 438 548 *~, f 30;
#X obj 254 401 *~ -0.6, f 8;
#X obj 254 310 * 0.75;
#X obj 579 621 delwrite~ delay2 750;
#X obj 113 77 receive delayToggle;
#X obj 98 159 *~ 1;
#X obj 266 18 receive delay;
#X obj 266 55 unpack f f;
#X obj 322 102 * 600;
#X obj 322 124 + 100;
#X connect 0 0 34 0;
#X connect 1 0 9 0;
#X connect 2 0 26 0;
#X connect 3 0 2 0;
#X connect 4 0 7 0;
#X connect 6 0 15 0;
#X connect 6 0 1 0;
#X connect 7 0 8 0;
#X connect 8 0 3 0;
#X connect 9 0 8 0;
#X connect 10 0 26 1;
#X connect 11 0 10 0;
#X connect 12 0 11 0;
#X connect 13 0 14 0;
#X connect 14 0 11 0;
#X connect 15 0 20 0;
#X connect 16 0 21 1;
#X connect 18 0 19 0;
#X connect 20 0 16 0;
#X connect 21 0 27 0;
#X connect 22 0 24 0;
#X connect 24 0 23 0;
#X connect 24 0 29 0;
#X connect 25 0 22 0;
#X connect 26 0 29 1;
#X connect 28 0 30 0;
#X connect 29 0 27 0;
#X connect 29 0 32 0;
#X connect 30 0 27 0;
#X connect 30 0 23 0;
#X connect 31 0 28 0;
#X connect 33 0 18 0;
#X connect 34 0 21 0;
#X connect 35 0 36 0;
#X connect 36 0 37 0;
#X connect 36 1 6 1;
#X connect 36 1 6 0;
#X connect 37 0 38 0;
#X connect 38 0 31 0;
#X connect 38 0 25 0;
#X restore 56 204 pd delay-stuff;
#N canvas 0 23 259 303 userVolume 0;
#X obj 62 36 inlet~;
#X obj 62 252 outlet~;
#X obj 77 176 line~;
#X msg 77 153 \$1 10;
#X obj 77 74 receive userVolume;
#X obj 62 211 *~;
#X connect 0 0 5 0;
#X connect 2 0 5 1;
#X connect 3 0 2 0;
#X connect 4 0 3 0;
#X connect 5 0 1 0;
#X restore 33 371 pd userVolume;
#N canvas 659 64 560 546 lydting 0;
#X obj 39 22 inlet;
#X obj 39 431 outlet~;
#X obj 39 157 route 1 2 3 4 5 6, f 53;
#X obj 39 399 *~ 1;
#N canvas 41 40 292 347 scaletone 0;
#X obj 30 22 inlet;
#X obj 30 258 outlet;
#X obj 82 136 +;
#X obj 82 195 +;
#X obj 97 89 receive octave;
#X obj 97 112 * 12;
#X obj 97 172 receive semi;
#X obj 30 54 unpack f f f, f 18;
#X obj 30 222 pack f f f, f 18;
#X connect 0 0 7 0;
#X connect 2 0 3 0;
#X connect 3 0 8 1;
#X connect 4 0 5 0;
#X connect 5 0 2 1;
#X connect 6 0 3 1;
#X connect 7 0 8 0;
#X connect 7 1 2 0;
#X connect 7 2 8 2;
#X connect 8 0 1 0;
#X restore 39 89 pd scaletone;
#N canvas 481 125 906 474 align-to-pianokeys 0;
#X obj 77 45 inlet;
#X obj 77 382 outlet;
#X obj 77 94 unpack f f f f, f 21;
#X obj 77 326 pack f f f;
#X obj 118 250 > 0;
#X obj 200 170 > 0.5;
#X obj 159 199 spigot, f 7;
#X obj 310 201 spigot;
#X obj 343 173 <= 0.5;
#N canvas 555 178 356 214 whitekeys 0;
#X obj 40 36 inlet;
#X obj 40 121 outlet;
#X obj 40 64 * 8;
#N canvas 0 22 635 415 (subpatch) 0;
#X array whitekeys 8 float 1;
#A 0 60 62 64 65 67 69 71 72;
#X coords 0 72 7 60 100 50 1 0 0;
#X restore 170 77 graph;
#X obj 40 93 tabread whitekeys;
#X connect 0 0 2 0;
#X connect 2 0 4 0;
#X connect 4 0 1 0;
#X restore 310 250 pd whitekeys;
#N canvas 9 52 721 627 white-and-blackkeys 0;
#X obj 122 71 inlet;
#X obj 140 347 outlet;
#N canvas 0 22 635 415 (subpatch) 0;
#X array wnbkeys 100 float 1;
#A 0 60 60 60 60 60 60 60 60 60 61 61 61 61 61 61 61 62 62 62 62 62
62 62 63 63 63 63 63 64 64 64 64 64 64 64 64 64 64 65 65 65 65 65 65
65 65 65 66 66 66 66 66 66 67 67 67 67 67 67 68 68 68 68 68 68 68 69
69 69 69 69 69 70 70 70 70 70 70 70 71 71 71 71 71 71 71 71 72 72 72
72 72 72 72 72 72 72 72 72 72;
#X coords 0 72 99 60 100 50 1 0 0;
#X restore 328 186 graph;
#X obj 122 117 * 100;
#X obj 140 319 tabread wnbkeys;
#X obj 637 378 pack, f 9;
#X obj 637 278 t f f, f 9;
#X obj 688 302 + 1;
#X obj 688 351 + 0.03;
#X msg 637 255 0 \, 1 \, 3 \, 4 \, 5;
#X obj 637 301 * 0.126;
#X obj 688 326 * 0.126;
#X obj 637 326 + 0.09;
#X obj 627 202 print;
#X obj 782 295 pack, f 9;
#X obj 782 225 t f f, f 9;
#X obj 833 249 + 1;
#X obj 782 249 * 0.124;
#X obj 833 273 * 0.124;
#X obj 782 273 + 0.005;
#X msg 782 202 0 \, 1 \, 2 \, 3 \, 4 \, 5 \, 6 \, 7;
#X msg 466 187 \$2 \$1;
#X obj 464 135 pack;
#X obj 465 222 unpack f f;
#X obj 483 115 nbx 5 14 -1e+37 1e+37 0 0 empty empty empty 0 -8 0 10
-262144 -1 -1 0 256;
#X obj 456 82 nbx 5 14 -1e+37 1e+37 0 0 empty empty empty 0 -8 0 10
-262144 -1 -1 0 256;
#X obj 459 290 tabwrite wnbkeys;
#X connect 0 0 3 0;
#X connect 3 0 4 0;
#X connect 4 0 1 0;
#X connect 5 0 13 0;
#X connect 6 0 10 0;
#X connect 6 1 7 0;
#X connect 7 0 11 0;
#X connect 8 0 5 1;
#X connect 9 0 6 0;
#X connect 10 0 12 0;
#X connect 11 0 8 0;
#X connect 12 0 5 0;
#X connect 14 0 13 0;
#X connect 15 0 17 0;
#X connect 15 1 16 0;
#X connect 16 0 18 0;
#X connect 17 0 19 0;
#X connect 18 0 14 1;
#X connect 19 0 14 0;
#X connect 20 0 15 0;
#X connect 21 0 23 0;
#X connect 22 0 21 0;
#X connect 23 0 26 0;
#X connect 23 1 26 1;
#X connect 24 0 22 1;
#X connect 25 0 22 0;
#X restore 159 250 pd white-and-blackkeys;
#X connect 0 0 2 0;
#X connect 2 0 3 0;
#X connect 2 1 4 0;
#X connect 2 2 6 0;
#X connect 2 2 7 0;
#X connect 2 3 5 0;
#X connect 2 3 8 0;
#X connect 3 0 1 0;
#X connect 4 0 3 2;
#X connect 5 0 6 1;
#X connect 6 0 10 0;
#X connect 7 0 9 0;
#X connect 8 0 7 1;
#X connect 9 0 3 1;
#X connect 10 0 3 1;
#X restore 39 58 pd align-to-pianokeys;
#X obj 39 184 SMsinus;
#X obj 91 205 SMsinus;
#X obj 144 227 SMsinus;
#X obj 196 252 SMsinus;
#X obj 249 278 SMsinus;
#X obj 301 304 SMsinus;
#X connect 0 0 5 0;
#X connect 2 0 6 0;
#X connect 2 1 7 0;
#X connect 2 2 8 0;
#X connect 2 3 9 0;
#X connect 2 4 10 0;
#X connect 2 5 11 0;
#X connect 3 0 1 0;
#X connect 4 0 2 0;
#X connect 5 0 4 0;
#X connect 6 0 3 0;
#X connect 7 0 3 0;
#X connect 8 0 3 0;
#X connect 9 0 3 0;
#X connect 10 0 3 0;
#X connect 11 0 3 0;
#X restore 33 38 pd lydting;
#N canvas 269 49 490 557 chorus 0;
#X obj 12 7 inlet~;
#X obj 142 7 inlet;
#X obj 57 281 line~;
#X obj 12 313 *~, f 8;
#X obj 233 522 outlet~;
#X obj 57 202 - 1;
#X obj 142 82 unpack 0 0, f 37;
#X msg 57 256 \$1 100;
#X obj 361 320 vd~ flangerdel 100;
#X obj 137 418 delwrite~ flangerdel 1000;
#X obj 182 205 line~;
#X obj 137 237 *~, f 8;
#X msg 182 180 \$1 100;
#X obj 361 296 +~ 30;
#X obj 361 230 line~;
#X msg 361 209 \$1 100;
#X obj 361 252 osc~;
#X obj 361 274 *~ 0.7;
#X obj 158 386 *~ -0.5;
#X obj 361 135 exp;
#X obj 361 109 * -1;
#X obj 361 188 * 3;
#X obj 361 161 + 1, f 4;
#X obj 57 229 abs;
#X obj 425 13 loadbang;
#X msg 425 39 0 0;
#X connect 0 0 3 0;
#X connect 0 0 11 0;
#X connect 1 0 6 0;
#X connect 2 0 3 1;
#X connect 3 0 4 0;
#X connect 5 0 23 0;
#X connect 6 0 5 0;
#X connect 6 0 12 0;
#X connect 6 1 20 0;
#X connect 7 0 2 0;
#X connect 8 0 4 0;
#X connect 8 0 18 0;
#X connect 10 0 11 1;
#X connect 11 0 9 0;
#X connect 12 0 10 0;
#X connect 13 0 8 0;
#X connect 14 0 16 0;
#X connect 15 0 14 0;
#X connect 16 0 17 0;
#X connect 17 0 13 0;
#X connect 18 0 9 0;
#X connect 19 0 22 0;
#X connect 20 0 19 0;
#X connect 21 0 15 0;
#X connect 22 0 21 0;
#X connect 23 0 7 0;
#X connect 24 0 25 0;
#X connect 25 0 6 0;
#X restore 33 174 pd chorus;
#X obj 33 256 *~, f 9;
#N canvas 659 64 413 472 lydting2 0;
#X obj 39 22 inlet;
#X obj 39 431 outlet~;
#X obj 39 157 route 1 2 3 4 5 6, f 53;
#X obj 39 399 *~ 1;
#N canvas 41 40 292 347 scaletone 0;
#X obj 30 22 inlet;
#X obj 30 258 outlet;
#X obj 82 136 +;
#X obj 82 195 +;
#X obj 97 89 receive octave;
#X obj 97 112 * 12;
#X obj 97 172 receive semi;
#X obj 30 54 unpack f f f, f 18;
#X obj 30 222 pack f f f, f 18;
#X connect 0 0 7 0;
#X connect 2 0 3 0;
#X connect 3 0 8 1;
#X connect 4 0 5 0;
#X connect 5 0 2 1;
#X connect 6 0 3 1;
#X connect 7 0 8 0;
#X connect 7 1 2 0;
#X connect 7 2 8 2;
#X connect 8 0 1 0;
#X restore 39 89 pd scaletone;
#N canvas 244 125 426 449 align-to-pianokeys 0;
#X obj 77 45 inlet;
#X obj 78 382 outlet;
#X obj 77 94 unpack f f f f, f 21;
#X obj 78 326 pack f f f;
#X obj 104 127 > 0;
#X obj 204 128 > 0.5;
#X obj 159 169 spigot, f 8;
#X obj 223 169 spigot;
#X obj 256 129 <= 0.5;
#N canvas 555 178 356 214 whitekeys 0;
#X obj 40 36 inlet;
#X obj 40 121 outlet;
#X obj 40 64 * 8;
#X obj 40 93 tabread whitekeys;
#X connect 0 0 2 0;
#X connect 2 0 3 0;
#X connect 3 0 1 0;
#X restore 316 252 pd whitekeys;
#N canvas 9 52 1020 615 white-and-blackkeys 0;
#X obj 122 71 inlet;
#X obj 123 253 outlet;
#X obj 122 117 * 100;
#X obj 123 225 tabread wnbkeys;
#X connect 0 0 2 0;
#X connect 2 0 3 0;
#X connect 3 0 1 0;
#X restore 159 250 pd white-and-blackkeys;
#X obj 159 288 + 12;
#X connect 0 0 2 0;
#X connect 2 0 3 0;
#X connect 2 1 4 0;
#X connect 2 2 6 0;
#X connect 2 2 7 0;
#X connect 2 3 5 0;
#X connect 2 3 8 0;
#X connect 3 0 1 0;
#X connect 4 0 3 2;
#X connect 5 0 6 1;
#X connect 6 0 10 0;
#X connect 7 0 9 0;
#X connect 8 0 7 1;
#X connect 9 0 11 0;
#X connect 10 0 11 0;
#X connect 11 0 3 1;
#X restore 39 58 pd align-to-pianokeys;
#X obj 39 184 SMsinus;
#X obj 91 205 SMsinus;
#X obj 144 227 SMsinus;
#X obj 196 252 SMsinus;
#X obj 249 278 SMsinus;
#X obj 301 304 SMsinus;
#X connect 0 0 5 0;
#X connect 2 0 6 0;
#X connect 2 1 7 0;
#X connect 2 2 8 0;
#X connect 2 3 9 0;
#X connect 2 4 10 0;
#X connect 2 5 11 0;
#X connect 3 0 1 0;
#X connect 4 0 2 0;
#X connect 5 0 4 0;
#X connect 6 0 3 0;
#X connect 7 0 3 0;
#X connect 8 0 3 0;
#X connect 9 0 3 0;
#X connect 10 0 3 0;
#X connect 11 0 3 0;
#X restore 70 84 pd lydting2;
#N canvas 0 22 268 121 filter 0;
#X obj 161 17 receive lop;
#X obj 14 17 inlet~;
#X obj 14 79 outlet~;
#X obj 14 48 lop~ 22000, f 25;
#X connect 0 0 3 1;
#X connect 1 0 3 0;
#X connect 3 0 2 0;
#X restore 33 401 pd filter;
#X connect 1 0 2 0;
#X connect 2 0 5 0;
#X connect 4 0 16 0;
#X connect 5 0 18 1;
#X connect 5 1 6 0;
#X connect 6 0 11 0;
#X connect 7 0 4 0;
#X connect 8 0 7 1;
#X connect 9 0 8 0;
#X connect 11 0 9 0;
#X connect 12 0 17 0;
#X connect 12 1 20 0;
#X connect 13 0 19 1;
#X connect 14 0 0 1;
#X connect 14 0 0 0;
#X connect 15 0 19 0;
#X connect 16 0 21 0;
#X connect 17 0 18 0;
#X connect 18 0 19 0;
#X connect 18 0 15 0;
#X connect 19 0 7 0;
#X connect 19 0 16 0;
#X connect 20 0 18 0;
#X connect 21 0 14 0;
