#N canvas 401 64 262 298 10;
#X obj 18 13 inlet, f 8;
#X obj 18 240 outlet~;
#X obj 18 94 mtof;
#X obj 18 52 unpack 0 0;
#X obj 75 139 line~;
#X msg 75 110 \$1 100;
#X obj 18 168 *~, f 10;
#X obj 18 126 osc~;
#X obj 75 81 clip 0 1;
#X obj 18 201 *~ 0.8;
#X connect 0 0 3 0;
#X connect 2 0 7 0;
#X connect 3 0 2 0;
#X connect 3 1 8 0;
#X connect 4 0 6 1;
#X connect 5 0 4 0;
#X connect 6 0 9 0;
#X connect 7 0 6 0;
#X connect 8 0 5 0;
#X connect 9 0 1 0;
