#N canvas 147 23 185 298 10;
#X obj 18 13 inlet, f 8;
#X obj 18 240 outlet~;
#X obj 18 94 mtof;
#X obj 18 52 unpack 0 0;
#X obj 75 139 line~;
#X msg 75 110 \$1 100;
#X obj 18 168 *~, f 10;
#N canvas 3 387 450 300 noise 0;
#X obj 130 29 inlet;
#X obj 36 250 outlet~;
#X obj 38 87 noise~;
#X obj 224 94 * 2;
#X obj 347 217 bp~ 600 100;
#X obj 227 214 bp~ 400 100;
#X obj 86 206 bp~ 200 70;
#X obj 328 98 * 3;
#X obj 174 93 * 0.5;
#X obj 173 170 line~;
#X msg 176 133 \$1 10;
#X obj 176 203 osc~;
#X connect 0 0 6 1;
#X connect 0 0 8 0;
#X connect 0 0 3 0;
#X connect 0 0 7 0;
#X connect 2 0 6 0;
#X connect 2 0 5 0;
#X connect 2 0 4 0;
#X connect 3 0 5 1;
#X connect 4 0 1 0;
#X connect 5 0 1 0;
#X connect 6 0 1 0;
#X connect 7 0 4 1;
#X connect 8 0 10 0;
#X connect 9 0 11 0;
#X connect 10 0 9 0;
#X connect 11 0 1 0;
#X restore 18 138 pd noise;
#X obj 75 82 clip 0 1;
#X obj 18 202 *~ 1.2;
#X connect 0 0 3 0;
#X connect 2 0 7 0;
#X connect 3 0 2 0;
#X connect 3 1 8 0;
#X connect 4 0 6 1;
#X connect 5 0 4 0;
#X connect 6 0 9 0;
#X connect 7 0 6 0;
#X connect 8 0 5 0;
#X connect 9 0 1 0;
